<svg xmlns="http://www.w3.org/2000/svg" width="20.88" height="17.944" viewBox="0 0 20.88 17.944">
<defs>
</defs>
<path id="basket" class="cls-1" d="M1369.03,146.19l2.2-5.734a0.887,0.887,0,0,0-.1-0.834,0.913,0.913,0,0,0-.75-0.39h-14.17l-1.11-2.886a0.92,0.92,0,0,0-.86-0.587h-3.11a0.319,0.319,0,1,0,0,.637h3.11a0.283,0.283,0,0,1,.26.175l1.16,3.028a0.158,0.158,0,0,0,.02.065l2.65,6.9c0.01,0.022.02,0.044,0.03,0.063l1.15,3a1.846,1.846,0,1,0,2.13,1.826,1.8,1.8,0,0,0-.46-1.208h5.78a1.8,1.8,0,0,0-.46,1.208,1.865,1.865,0,1,0,1.96-1.842l-0.04,0h-8.04a0.27,0.27,0,0,1-.25-0.171l-1.03-2.665h9.07A0.93,0.93,0,0,0,1369.03,146.19Zm1.57-6.206a0.269,0.269,0,0,1,.03.246l-2.2,5.734a0.275,0.275,0,0,1-.26.172h-9.31l-2.41-6.267h13.93A0.262,0.262,0,0,1,1370.6,139.984Zm-10.82,12.677a1.208,1.208,0,1,1,1.22-1.208A1.219,1.219,0,0,1,1359.78,152.661Zm9.81-1.208a1.225,1.225,0,1,1-1.23-1.208A1.219,1.219,0,0,1,1369.59,151.453Z" transform="translate(-1350.61 -135.544)"></path>
</svg>